<svg width="360" height="360" viewBox="0 0 360 360" fill="none" xmlns="http://www.w3.org/2000/svg">
<g clip-path="url(#clip0_97_0)">
<rect width="360" height="360" fill="#0E2033"/>
<path d="M120.4 187C118.933 187 117.8 186.533 117 185.6C116.333 184.533 116.133 183.333 116.4 182L144 52C144.267 50.5333 144.933 49.3333 146 48.4C147.2 47.4667 148.467 47 149.8 47H175.2C176.667 47 177.8 47.4667 178.6 48.4C179.267 49.0667 179.6 49.9333 179.6 51C179.6 51.2667 179.533 51.6 179.4 52L170 95.6L214.4 50.8C216.667 48.2667 219.533 47 223 47H252.6C253.8 47 254.733 47.4 255.4 48.2C256.067 48.8667 256.4 49.7333 256.4 50.8C256.4 51.8667 256 52.8 255.2 53.6L193.8 116.6L231.6 180.4C232.133 181.467 232.4 182.2 232.4 182.6C232.4 183.8 231.867 184.867 230.8 185.8C229.733 186.6 228.6 187 227.4 187H199.4C195.933 187 193.533 185.667 192.2 183L162.2 133L151.6 182C151.333 183.467 150.667 184.667 149.6 185.6C148.533 186.533 147.267 187 145.8 187H120.4Z" fill="white"/>
<rect y="223" width="360" height="137" fill="#67E6B0"/>
<path d="M97.4 319.8C92.7067 319.8 88.68 319.16 85.32 317.88C82.0133 316.6 79.5067 314.893 77.8 312.76C76.1467 310.627 75.32 308.253 75.32 305.64C75.32 305.213 75.3733 304.573 75.48 303.72C75.5867 303.24 75.8 302.84 76.12 302.52C76.4933 302.2 76.92 302.04 77.4 302.04H87.64C88.28 302.04 88.76 302.147 89.08 302.36C89.4533 302.573 89.8267 302.947 90.2 303.48C90.5733 304.867 91.4267 306.013 92.76 306.92C94.1467 307.827 96.04 308.28 98.44 308.28C101.48 308.28 103.933 307.8 105.8 306.84C107.667 305.88 108.787 304.573 109.16 302.92C109.213 302.707 109.24 302.387 109.24 301.96C109.24 300.627 108.413 299.587 106.76 298.84C105.107 298.04 102.067 297.107 97.64 296.04C92.4667 294.92 88.5467 293.24 85.88 291C83.2133 288.707 81.88 285.72 81.88 282.04C81.88 280.76 82.04 279.453 82.36 278.12C83.4267 273.16 86.0667 269.267 90.28 266.44C94.5467 263.613 100.04 262.2 106.76 262.2C110.813 262.2 114.413 262.92 117.56 264.36C120.707 265.8 123.133 267.64 124.84 269.88C126.6 272.067 127.48 274.253 127.48 276.44C127.48 277.08 127.453 277.533 127.4 277.8C127.293 278.28 127.053 278.68 126.68 279C126.36 279.32 125.96 279.48 125.48 279.48H114.76C113.587 279.48 112.787 279.027 112.36 278.12C112.307 276.893 111.667 275.853 110.44 275C109.213 274.147 107.613 273.72 105.64 273.72C103.293 273.72 101.347 274.147 99.8 275C98.3067 275.853 97.3733 277.107 97 278.76C96.9467 279.027 96.92 279.373 96.92 279.8C96.92 281.08 97.6667 282.147 99.16 283C100.707 283.8 103.4 284.627 107.24 285.48C113.213 286.653 117.56 288.333 120.28 290.52C123.053 292.707 124.44 295.613 124.44 299.24C124.44 300.467 124.28 301.8 123.96 303.24C122.787 308.68 119.933 312.813 115.4 315.64C110.92 318.413 104.92 319.8 97.4 319.8ZM152.449 319.8C146.102 319.8 140.902 318.307 136.849 315.32C132.849 312.28 130.849 307.96 130.849 302.36C130.849 301.187 130.982 299.747 131.249 298.04C131.942 294.2 132.929 289.587 134.209 284.2C137.835 269.533 147.195 262.2 162.289 262.2C166.395 262.2 170.075 262.893 173.329 264.28C176.582 265.613 179.142 267.64 181.009 270.36C182.875 273.027 183.809 276.227 183.809 279.96C183.809 281.08 183.675 282.493 183.409 284.2C182.609 288.947 181.649 293.56 180.529 298.04C178.662 305.347 175.435 310.813 170.849 314.44C166.262 318.013 160.129 319.8 152.449 319.8ZM153.569 308.28C156.555 308.28 159.089 307.4 161.169 305.64C163.302 303.88 164.822 301.187 165.729 297.56C166.955 292.547 167.889 288.173 168.529 284.44C168.742 283.32 168.849 282.173 168.849 281C168.849 276.147 166.315 273.72 161.249 273.72C158.262 273.72 155.702 274.6 153.569 276.36C151.489 278.12 149.995 280.813 149.089 284.44C148.129 288.013 147.169 292.387 146.209 297.56C145.995 298.627 145.889 299.747 145.889 300.92C145.889 305.827 148.449 308.28 153.569 308.28ZM187.482 319C186.895 319 186.442 318.813 186.122 318.44C185.855 318.013 185.775 317.533 185.882 317L196.922 265C197.029 264.413 197.322 263.933 197.802 263.56C198.282 263.187 198.789 263 199.322 263H236.122C236.709 263 237.162 263.187 237.482 263.56C237.695 263.827 237.802 264.147 237.802 264.52C237.802 264.68 237.775 264.84 237.722 265L236.042 273.08C235.935 273.667 235.642 274.147 235.162 274.52C234.682 274.893 234.175 275.08 233.642 275.08H208.922L206.442 286.84H229.482C230.069 286.84 230.522 287.027 230.842 287.4C231.055 287.72 231.162 288.067 231.162 288.44C231.162 288.6 231.135 288.76 231.082 288.92L229.402 296.92C229.295 297.453 229.002 297.933 228.522 298.36C228.042 298.733 227.509 298.92 226.922 298.92H203.882L199.962 317C199.855 317.587 199.562 318.067 199.082 318.44C198.655 318.813 198.149 319 197.562 319H187.482ZM249.253 319C248.666 319 248.213 318.813 247.893 318.44C247.573 318.013 247.466 317.533 247.573 317L256.453 275.56H242.213C241.626 275.56 241.173 275.373 240.853 275C240.586 274.573 240.506 274.093 240.613 273.56L242.453 265C242.56 264.413 242.853 263.933 243.333 263.56C243.813 263.187 244.32 263 244.853 263H287.893C288.48 263 288.933 263.187 289.253 263.56C289.466 263.88 289.573 264.2 289.573 264.52C289.573 264.68 289.546 264.84 289.493 265L287.653 273.56C287.546 274.147 287.253 274.627 286.773 275C286.346 275.373 285.84 275.56 285.253 275.56H271.093L262.213 317C262.106 317.587 261.813 318.067 261.333 318.44C260.853 318.813 260.346 319 259.813 319H249.253Z" fill="#0E2033"/>
<path d="M145.931 131.776L119.534 167.103L105.902 150.282L145.931 131.776Z" fill="#0E2033"/>
</g>
<defs>
<clipPath id="clip0_97_0">
<rect width="360" height="360" fill="white"/>
</clipPath>
</defs>
</svg>
